<svg width="32" height="34" viewBox="0 0 32 34" fill="none" xmlns="http://www.w3.org/2000/svg">
<path d="M16 0.5C14.2694 0.5 12.5777 1.01318 11.1388 1.97464C9.69983 2.9361 8.57832 4.30267 7.91605 5.90152C7.25379 7.50037 7.08051 9.25971 7.41813 10.957C7.75575 12.6544 8.58911 14.2135 9.81282 15.4372C11.0365 16.6609 12.5956 17.4943 14.293 17.8319C15.9903 18.1695 17.7496 17.9962 19.3485 17.3339C20.9473 16.6717 22.3139 15.5502 23.2754 14.1112C24.2368 12.6723 24.75 10.9806 24.75 9.25C24.75 6.92936 23.8281 4.70376 22.1872 3.06282C20.5462 1.42187 18.3206 0.5 16 0.5V0.5ZM16 14.5C14.9616 14.5 13.9466 14.1921 13.0833 13.6152C12.2199 13.0383 11.547 12.2184 11.1496 11.2591C10.7523 10.2998 10.6483 9.24418 10.8509 8.22578C11.0534 7.20738 11.5535 6.27192 12.2877 5.53769C13.0219 4.80346 13.9574 4.30345 14.9758 4.10088C15.9942 3.89831 17.0498 4.00227 18.0091 4.39963C18.9684 4.79699 19.7883 5.4699 20.3652 6.33326C20.9421 7.19661 21.25 8.21165 21.25 9.25C21.25 10.6424 20.6969 11.9777 19.7123 12.9623C18.7277 13.9469 17.3924 14.5 16 14.5V14.5ZM31.75 33.75V32C31.75 28.7511 30.4594 25.6353 28.1621 23.3379C25.8647 21.0406 22.7489 19.75 19.5 19.75H12.5C9.2511 19.75 6.13526 21.0406 3.83794 23.3379C1.54062 25.6353 0.25 28.7511 0.25 32V33.75H3.75V32C3.75 29.6794 4.67187 27.4538 6.31282 25.8128C7.95376 24.1719 10.1794 23.25 12.5 23.25H19.5C21.8206 23.25 24.0462 24.1719 25.6872 25.8128C27.3281 27.4538 28.25 29.6794 28.25 32V33.75H31.75Z" fill="black"/>
</svg>
